<svg id="Capa_1" data-name="Capa 1" xmlns="http://www.w3.org/2000/svg" xmlns:xlink="http://www.w3.org/1999/xlink" viewBox="0 0 426.05 130.03"><defs><style>.cls-1{fill:#3a100e;}.cls-2{fill:url(#Degradado_sin_nombre_26);}.cls-3{fill:url(#Degradado_sin_nombre_26-2);}.cls-4{fill:url(#Degradado_sin_nombre_26-3);}.cls-5{fill:url(#Degradado_sin_nombre_26-4);}</style><linearGradient id="Degradado_sin_nombre_26" x1="22.68" y1="20.03" x2="29.05" y2="20.03" gradientUnits="userSpaceOnUse"><stop offset="0" stop-color="#d7d4d2" stop-opacity="0.7"/><stop offset="0.04" stop-color="#cfc6c2" stop-opacity="0.76"/><stop offset="0.19" stop-color="#baa298" stop-opacity="0.9"/><stop offset="0.41" stop-color="#ad8e81" stop-opacity="0.98"/><stop offset="1" stop-color="#aa887a"/></linearGradient><linearGradient id="Degradado_sin_nombre_26-2" x1="53.41" y1="65.69" x2="60.31" y2="65.69" xlink:href="#Degradado_sin_nombre_26"/><linearGradient id="Degradado_sin_nombre_26-3" x1="69.04" y1="70.85" x2="75.73" y2="70.85" xlink:href="#Degradado_sin_nombre_26"/><linearGradient id="Degradado_sin_nombre_26-4" x1="40.44" y1="107.46" x2="78.69" y2="107.46" xlink:href="#Degradado_sin_nombre_26"/></defs><title>logo</title><path class="cls-1" d="M21.7,12.67A6.55,6.55,0,0,1,21.14,10c.38-2.19,1-4.34,1.56-6.51C24.33,4.71,26,5.8,27.57,7.1c4,3.41,7.6,7.34,11.9,10.29C51.81,25.83,52,43.77,44.57,53.55l1.21-8.3C47,36.74,45,27.09,35.23,23.89a18,18,0,0,0-2.87-.32L43.34,70l1.34.34Q50.32,63.89,56,57.44c2-2.33,4.1-4.63,6-7,3.11-3.88,7.14-4.76,11.74-3.71Q94.37,51.43,115,56.25c4.14,1,7.4,3.2,9,7.19,2.85,7,5.7,14.11,8.11,21.31,1.54,4.6.31,6.79-4.11,9.4-6.41,3.79-12.89,7.47-19.29,11.27-1.65,1-3.15,2.21-4.72,3.33l.39,1.7c4.38.84,8.78,1.55,13.12,2.57a57.36,57.36,0,0,1,10.85,3.31c1.86.86,4,3,4.25,4.85.21,1.37-2,4-3.72,4.6-7.69,2.57-15.43,5.49-23.38,6.62a118.62,118.62,0,0,1-43.84-2,34.49,34.49,0,0,1-7.15-2.57c-4.08-2-4.4-3.17-2.53-8.09a51.41,51.41,0,0,1-6.77-3.06c-1.39-.86-3.17-2.49-3.17-3.78s1.8-2.81,3.1-3.88c1.08-.88,2.58-1.24,4.91-2.29L34.25,99.5c-9.8-4.5-9.94-4.93-3.06-13.17,2.13-2.55,4.26-4.89,3.84-8.58a4.29,4.29,0,0,1,.8-3.08c3.11-3.33,1.95-6.67.83-10.43m27.22,44c3.6,1.73,6.42,3.22,9.35,4.46C79.95,115.57,81.83,115,86,109q13.75-19.67,27.43-39.39a12.85,12.85,0,0,0,2.35-4.25,4.64,4.64,0,0,0-1-3.78c-4.13-3.78-10.25-2.74-14,1.46-8.1,9-13.25,20.35-23.58,27.83C71.71,94.85,68.56,101.94,63.88,108.28Zm-18.21-7.66c2.82,1.31,4.87,2.38,7,3.23,7.22,2.87,6.19,4.61,11.82-2.94,1.41-1.89,2.88-3.73,4.27-5.64,2.53-3.48,6.35-6.33,4.84-11.68-.32-1.14,1.1-3,2.05-4.24,3.48-4.65,7.11-9.17,10.65-13.78,2.27-3,4.48-6,6.77-9-6.09-3.26-6.5-3-10.22,1.09-8,8.8-13.4,19.74-23.68,26.87C53.79,88.27,50.37,94.84,45.67,100.63ZM42,82.78l-1.94,0a38.83,38.83,0,0,1,.62,5.53c0,2.06,2.59,4.26-.45,6.62l-4.75-8.82c-1.42,3.18-3.6,5.7-3.26,7.81C32.78,97.56,42.42,99,45,96.09q5.38-6.16,10.5-12.54c.71-.89,1.54-2.36,1.27-3.24-1.09-3.55.76-5.91,2.74-8.32,4.16-5.05,8.33-10.09,12.45-15.18,1.2-1.49,2.23-3.12,3.38-4.75-5.67-2.86-7-2.93-10,.44-5.7,6.35-11.19,12.89-16.71,19.28,5,8,5.35,11.85,1.48,12.45L47,81c-2.44,3,2.51,7.15-2.53,8.94Z" transform="translate(-21.11 -3.53)"/><path class="cls-2" d="M23.47,5.31c2.78,7.16,5.58,30.21,5.58,30.21s-4.55-18.69-5.58-25c-.15-.93-.45-2.68-.63-3.61-.1-.54-.38-2.18.14-2.36C23.21,4.47,23.39,5.1,23.47,5.31Z" transform="translate(-21.11 -3.53)"/><path class="cls-3" d="M54.58,71.81c.74-.05.11-2.21.36-2.92.57-1.65,5.38-9.33,5.38-9.33S53.95,67,53.45,68.92C53.26,69.67,53.81,71.87,54.58,71.81Z" transform="translate(-21.11 -3.53)"/><path class="cls-4" d="M70.21,76.94c.74-.05.11-2.21.36-2.92.57-1.65,5.17-9.25,5.17-9.25S69.57,72.13,69.08,74C68.88,74.8,69.43,77,70.21,76.94Z" transform="translate(-21.11 -3.53)"/><path class="cls-5" d="M41.64,100.52c-.25.94,2.27,1.73,2.81,2,1.56.8,5.74,1.7,6.66,3.19.61,1-.81,3.89-.21,4.89,1.47,2.41,11.17,5,14,5.28,4,.46,13.81,2.06,13.81,2.06s-9.16-.35-13.25-.56c-3.24-.17-14.61-2.85-16-5.75-1-2.09,1-3.64.47-4.67-.91-1.7-8.06-3.64-9.18-5.21a1.55,1.55,0,0,1,0-1.72A10.31,10.31,0,0,1,44.59,97,27.55,27.55,0,0,0,41.64,100.52Z" transform="translate(-21.11 -3.53)"/><path class="cls-1" d="M168.28,85.93l4.58,12.6a9.55,9.55,0,0,0,1.09,2.29,2.21,2.21,0,0,0,1.33.73,2,2,0,0,1,1.74,2.27,3.37,3.37,0,0,1-2.13,3.27q-2.13,1-7,1a40.51,40.51,0,0,1-8.12-.59,3.43,3.43,0,0,1-1.93-1.14,3.12,3.12,0,0,1-.72-2.07,2.42,2.42,0,0,1,.38-1.45,3.32,3.32,0,0,1,1.39-.95,1.72,1.72,0,0,0,1.14-1.68,2.23,2.23,0,0,0-2-2.46,36.09,36.09,0,0,0-5.94-.37q-3.22,0-3.85.5a2.5,2.5,0,0,0-.68,1.12,4.59,4.59,0,0,0-.29,1.56,1.31,1.31,0,0,0,.21.89,5.66,5.66,0,0,0,1.34.67,2.18,2.18,0,0,1,1.48,2.24q0,3.7-6.91,3.7a17.82,17.82,0,0,1-5.77-.68,2.73,2.73,0,0,1-1.7-2.86,2.55,2.55,0,0,1,.38-1.49,3.25,3.25,0,0,1,1.34-1,5.33,5.33,0,0,0,2.39-2,33.8,33.8,0,0,0,2.31-5.52l3.42-9.62q1.89-5.29,2.53-7.92a22.58,22.58,0,0,0,.67-5.15,20.88,20.88,0,0,1,.25-3.72,5,5,0,0,1,1-2,5.15,5.15,0,0,1,4.26-2.18,6.37,6.37,0,0,1,4.68,2.46Q162.37,69.71,168.28,85.93Zm-16.86,3.92h4.75q1.31,0,1.31-.75,0-1-1.82-5a17.44,17.44,0,0,0-1.26-2.46,1.19,1.19,0,0,0-.92-.62q-.87,0-1.45,2.09-.1.28-.7,2.21a21.16,21.16,0,0,0-1,3.8Q150.31,89.85,151.42,89.85Z" transform="translate(-21.11 -3.53)"/><path class="cls-1" d="M191.33,66.44,203.39,80q1.7,1.9,2.45,1.9,1.26,0,1.26-3.45a25.76,25.76,0,0,0-.36-5.35A3.39,3.39,0,0,0,205.21,71a3.84,3.84,0,0,1-1.33-1.26,3.41,3.41,0,0,1-.39-1.73,3.27,3.27,0,0,1,2.79-3.36,17.22,17.22,0,0,1,4-.31,15.5,15.5,0,0,1,5.06.56,3.26,3.26,0,0,1,2.23,3.3,3.3,3.3,0,0,1-1.82,3,3.79,3.79,0,0,0-1,.72,2.65,2.65,0,0,0-.46.93,30.63,30.63,0,0,0-.68,7.78V90.78q0,2.33,0,6.38a40.32,40.32,0,0,1-.51,7.91q-.65,3-2.37,3a2.12,2.12,0,0,1-1.3-.4,14.34,14.34,0,0,1-1.8-1.87L193.26,89.29q-1.5-1.74-2.5-1.74-1.48,0-1.48,5.26a30.38,30.38,0,0,0,.38,5.91,3.62,3.62,0,0,0,1.54,2.33,3.07,3.07,0,0,1,1.62,2.68q0,4.33-7.24,4.33a9.75,9.75,0,0,1-5.08-1.11,3.47,3.47,0,0,1-1.8-3.13,3,3,0,0,1,.34-1.59,6.83,6.83,0,0,1,1.53-1.43A4.28,4.28,0,0,0,182,97.72q.41-4,.41-11.55a66.83,66.83,0,0,0-.73-11.7,6.12,6.12,0,0,0-.68-2,4.19,4.19,0,0,0-1.36-1.24,4.85,4.85,0,0,1-1.51-1.34,2.85,2.85,0,0,1-.42-1.59q0-3,4-3.77a30.49,30.49,0,0,1,4.75-.25,7.53,7.53,0,0,1,2.82.39A6.83,6.83,0,0,1,191.33,66.44Z" transform="translate(-21.11 -3.53)"/><path class="cls-1" d="M229.54,64.95H242.3a12.47,12.47,0,0,0,3.76-.72,4,4,0,0,1,1.28-.25q2,0,3.82,3.73A17.1,17.1,0,0,1,253,75.41a5.3,5.3,0,0,1-1.28,4,3.23,3.23,0,0,1-2.33.93,3.09,3.09,0,0,1-2.23-.92,9.66,9.66,0,0,1-1.87-3A12.78,12.78,0,0,0,244,73.82a1.37,1.37,0,0,0-1.11-.59,1.33,1.33,0,0,0-1.28,1,9.28,9.28,0,0,0-.39,3.17V94.79a12.51,12.51,0,0,0,.44,3.89,3.37,3.37,0,0,0,1.65,1.87,5.56,5.56,0,0,1,1.78,1.35,2.9,2.9,0,0,1,.47,1.76,3.53,3.53,0,0,1-2.36,3.33,18.26,18.26,0,0,1-7.26,1.09q-6,0-8.92-1.28a3.56,3.56,0,0,1-2.45-3.42,2.43,2.43,0,0,1,.87-2,13.71,13.71,0,0,1,1.72-.75,2.08,2.08,0,0,0,1.27-1.31,16.6,16.6,0,0,0,.57-3.7q.19-2.43.36-7.86t.17-9.41a16.22,16.22,0,0,0-.34-4q-.34-1.18-1.11-1.18-.95,0-1.84,1.74a18,18,0,0,1-2.67,4.2,3.53,3.53,0,0,1-2.4,1.21,2.52,2.52,0,0,1-2.16-1.26,5.65,5.65,0,0,1-.85-3.22,15.23,15.23,0,0,1,.68-4.25,19.23,19.23,0,0,1,1.82-4.28q1.84-3.17,3.63-3.17a4,4,0,0,1,1.11.19,20.84,20.84,0,0,0,2.14.47A13.16,13.16,0,0,0,229.54,64.95Z" transform="translate(-21.11 -3.53)"/><path class="cls-1" d="M272.32,64.08a15,15,0,0,1,10.88,4.58,23.37,23.37,0,0,1,5.11,8.15,27.59,27.59,0,0,1,1.91,10,23.49,23.49,0,0,1-3.78,13.13,18.13,18.13,0,0,1-8.36,7.06,16.62,16.62,0,0,1-6.37,1.31,15.65,15.65,0,0,1-8-2.24,18.28,18.28,0,0,1-7.24-8.19,26.58,26.58,0,0,1-2.54-11.67,25.67,25.67,0,0,1,3.27-13.07A17.87,17.87,0,0,1,265,65.7,16.38,16.38,0,0,1,272.32,64.08ZM270,73a3.59,3.59,0,0,0-3.22,2.33,8.74,8.74,0,0,0-.92,4.14A35.24,35.24,0,0,0,267,87.62a42.27,42.27,0,0,0,2.81,8.2,7.16,7.16,0,0,0,1.85,2.43,3.52,3.52,0,0,0,2.24.9,3.4,3.4,0,0,0,3-1.77A8.6,8.6,0,0,0,278,92.71a38.48,38.48,0,0,0-.94-8.12,33,33,0,0,0-2.45-7.44,9.59,9.59,0,0,0-2.13-3A4,4,0,0,0,270,73Z" transform="translate(-21.11 -3.53)"/><path class="cls-1" d="M312.32,64.3a25.52,25.52,0,0,1,5.52.62,7.48,7.48,0,0,1,3.29,1.37,3,3,0,0,1,1,2.4,2.7,2.7,0,0,1-.36,1.51,5.6,5.6,0,0,1-1.58,1.32,3.32,3.32,0,0,0-1.61,2.19q-.21,1.26-.38,9.79-.07,8.25-.13,9.9a27.4,27.4,0,0,1-.3,3.21,14.49,14.49,0,0,1-2.83,7.13,12,12,0,0,1-4.48,3.33,14.07,14.07,0,0,1-5.77,1.21,16.94,16.94,0,0,1-5.39-.9,15.08,15.08,0,0,1-4.69-2.49,9,9,0,0,1-2.62-3.53,11.75,11.75,0,0,1-1-4.75,8.36,8.36,0,0,1,1.53-5.15,4.61,4.61,0,0,1,3.83-2,5,5,0,0,1,3.83,1.71,6.17,6.17,0,0,1,1.58,4.29,13.38,13.38,0,0,1-.29,2.18,4.43,4.43,0,0,0,0,.68A2.33,2.33,0,0,0,302,99.9a1.89,1.89,0,0,0,1.48.62,3,3,0,0,0,2.62-1.87,10.47,10.47,0,0,0,1-4.92l0-2.83,0-7.62q-.22-6.94-.33-8.17a5,5,0,0,0-.55-2,2.55,2.55,0,0,0-.64-.81A8.38,8.38,0,0,0,304,71.7a1.69,1.69,0,0,1-1-.87,3,3,0,0,1-.41-1.53,3.6,3.6,0,0,1,1-2.69A7.58,7.58,0,0,1,307,65,20.89,20.89,0,0,1,312.32,64.3Z" transform="translate(-21.11 -3.53)"/><path class="cls-1" d="M333.82,64.3a21.08,21.08,0,0,1,5.21.62q3.29.84,3.29,3.58a2.3,2.3,0,0,1-.33,1.35,7.09,7.09,0,0,1-1.66,1.32q-1.11.72-1.47,3.14a80.77,80.77,0,0,0-.35,9.46q0,11.89.46,14.72a3.43,3.43,0,0,0,.52,1.38,4.57,4.57,0,0,0,1.22,1,3,3,0,0,1,1.6,2.71q0,2.49-3,3.42a26.61,26.61,0,0,1-7.83,1q-7.9,0-7.9-3.86a3.38,3.38,0,0,1,1.55-2.61A3.74,3.74,0,0,0,326.6,99,150.5,150.5,0,0,0,327.06,84q0-8-.63-10.21a4.44,4.44,0,0,0-1.62-2.3,6.48,6.48,0,0,1-1.33-1.4,2.72,2.72,0,0,1-.34-1.43,2.58,2.58,0,0,1,1-2.13,9.8,9.8,0,0,1,3.55-1.42A24.55,24.55,0,0,1,333.82,64.3Z" transform="translate(-21.11 -3.53)"/><path class="cls-1" d="M354.31,64.95h12.77a12.47,12.47,0,0,0,3.76-.72,4,4,0,0,1,1.28-.25q2,0,3.82,3.73a17.1,17.1,0,0,1,1.85,7.69,5.3,5.3,0,0,1-1.28,4,3.23,3.23,0,0,1-2.33.93,3.09,3.09,0,0,1-2.23-.92,9.66,9.66,0,0,1-1.87-3,12.78,12.78,0,0,0-1.26-2.52,1.37,1.37,0,0,0-1.11-.59,1.33,1.33,0,0,0-1.28,1,9.28,9.28,0,0,0-.39,3.17V94.79a12.51,12.51,0,0,0,.44,3.89,3.37,3.37,0,0,0,1.65,1.87,5.56,5.56,0,0,1,1.78,1.35,2.9,2.9,0,0,1,.47,1.76A3.53,3.53,0,0,1,368,107a18.26,18.26,0,0,1-7.26,1.09q-6,0-8.92-1.28a3.56,3.56,0,0,1-2.45-3.42,2.43,2.43,0,0,1,.87-2,13.71,13.71,0,0,1,1.72-.75,2.08,2.08,0,0,0,1.27-1.31,16.6,16.6,0,0,0,.57-3.7q.19-2.43.36-7.86t.17-9.41a16.22,16.22,0,0,0-.34-4q-.34-1.18-1.11-1.18-.95,0-1.84,1.74a18,18,0,0,1-2.67,4.2,3.53,3.53,0,0,1-2.4,1.21,2.52,2.52,0,0,1-2.16-1.26,5.65,5.65,0,0,1-.85-3.22,15.23,15.23,0,0,1,.68-4.25,19.23,19.23,0,0,1,1.82-4.28q1.84-3.17,3.63-3.17a4,4,0,0,1,1.11.19,20.84,20.84,0,0,0,2.14.47A13.16,13.16,0,0,0,354.31,64.95Z" transform="translate(-21.11 -3.53)"/><path class="cls-1" d="M397.1,64.08A15,15,0,0,1,408,68.65a23.37,23.37,0,0,1,5.11,8.15,27.59,27.59,0,0,1,1.91,10,23.49,23.49,0,0,1-3.78,13.13,18.13,18.13,0,0,1-8.36,7.06,16.62,16.62,0,0,1-6.37,1.31,15.65,15.65,0,0,1-8-2.24,18.28,18.28,0,0,1-7.24-8.19,26.58,26.58,0,0,1-2.54-11.67A25.67,25.67,0,0,1,382,73.1a17.87,17.87,0,0,1,7.83-7.41A16.38,16.38,0,0,1,397.1,64.08ZM394.8,73a3.59,3.59,0,0,0-3.22,2.33,8.74,8.74,0,0,0-.92,4.14,35.24,35.24,0,0,0,1.11,8.14,42.27,42.27,0,0,0,2.81,8.2,7.16,7.16,0,0,0,1.85,2.43,3.52,3.52,0,0,0,2.24.9,3.4,3.4,0,0,0,3-1.77,8.6,8.6,0,0,0,1.13-4.67,38.48,38.48,0,0,0-.94-8.12,33,33,0,0,0-2.45-7.44,9.59,9.59,0,0,0-2.13-3A4,4,0,0,0,394.8,73Z" transform="translate(-21.11 -3.53)"/><path class="cls-1" d="M431.75,64.08a19,19,0,0,1,6.54,1.59,2.3,2.3,0,0,0,.78.19,6.13,6.13,0,0,0,1.45-.56,1.87,1.87,0,0,1,.82-.19q1.62,0,3.43,3.3a13.13,13.13,0,0,1,1.8,6.29,5.12,5.12,0,0,1-.81,2.94,2.35,2.35,0,0,1-2,1.2,2.4,2.4,0,0,1-1.58-.5,30.82,30.82,0,0,1-2.67-3q-2.91-3.48-5.72-3.49a2.88,2.88,0,0,0-2.17.84,3,3,0,0,0-.81,2.21q0,2.71,3.71,4.08A46.79,46.79,0,0,1,441,81.79a12.56,12.56,0,0,1,6.18,11.36A14.63,14.63,0,0,1,442.94,104a15.27,15.27,0,0,1-11.27,4.29,24.61,24.61,0,0,1-6.54-.95,13.53,13.53,0,0,1-5-2.22q-1.16-1-2.1-4.34a24.21,24.21,0,0,1-.93-6.52,4.41,4.41,0,0,1,.48-2.3,1.77,1.77,0,0,1,1.53-1,2.3,2.3,0,0,1,1.77,1.21,47.32,47.32,0,0,1,2.4,4.39,7.2,7.2,0,0,0,2.85,2.89,7.83,7.83,0,0,0,4,1.15,4.64,4.64,0,0,0,2.91-.86,2.65,2.65,0,0,0,1.11-2.19,3,3,0,0,0-.87-2.15,8.14,8.14,0,0,0-2.83-1.68,33.21,33.21,0,0,1-5.28-2.57,16.39,16.39,0,0,1-3.39-2.94A14.58,14.58,0,0,1,418,78.3,14.83,14.83,0,0,1,419,73a13.29,13.29,0,0,1,2.81-4.5A13,13,0,0,1,431.75,64.08Z" transform="translate(-21.11 -3.53)"/></svg>