<svg id="Capa_1" data-name="Capa 1" xmlns="http://www.w3.org/2000/svg" viewBox="0 0 102.7 94.5"><defs><style>.cls-1{fill:#fcfcfc;}</style></defs><title>tortillapan</title><g id="_Grupo_" data-name="&lt;Grupo&gt;"><g id="_Grupo_2" data-name="&lt;Grupo&gt;"><path id="_Trazado_compuesto_" data-name="&lt;Trazado compuesto&gt;" class="cls-1" d="M72.8,110.33H40.54A19.58,19.58,0,0,1,21.37,95.06L14.43,64.92a2.29,2.29,0,0,1,.64-2.11,2.25,2.25,0,0,1,2.15-.56,153.74,153.74,0,0,0,78.87,0,2.25,2.25,0,0,1,2.15.56,2.32,2.32,0,0,1,.64,2.11L91.94,95.06A19.58,19.58,0,0,1,72.8,110.33ZM19.69,67.51l6.1,26.56a15.1,15.1,0,0,0,14.75,11.76H72.8A15.06,15.06,0,0,0,87.56,94.06l6.1-26.56A157.76,157.76,0,0,1,19.69,67.51Z" transform="translate(-5.31 -15.83)"/></g><g id="_Grupo_3" data-name="&lt;Grupo&gt;"><path id="_Trazado_" data-name="&lt;Trazado&gt;" class="cls-1" d="M97.4,66.55l-.76-2.15-.8-2.11c.28-.12,6.9-2.79,7.58-15.39.28-4.82-1.63-9.53-5.46-13.6-7.89-8.33-22.57-13-41.31-13s-33.41,4.59-41.31,13c-3.87,4.07-5.74,8.77-5.46,13.6.68,12.64,7.3,15.31,7.58,15.39L15.9,66.55C15.5,66.43,6.21,63,5.34,47.13c-.32-6.1,2-12,6.7-16.95,8.77-9.25,24.6-14.35,44.62-14.35s35.85,5.1,44.62,14.35c4.71,5,7.06,10.85,6.7,16.95C107.13,63,97.8,66.39,97.4,66.55Z" transform="translate(-5.31 -15.83)"/></g><g id="_Grupo_4" data-name="&lt;Grupo&gt;"><path id="_Trazado_compuesto_2" data-name="&lt;Trazado compuesto&gt;" class="cls-1" d="M34.12,46.38c-4.19,0-7.46-2.75-7.46-6.22s3.27-6.22,7.46-6.22,7.46,2.75,7.46,6.22S38.31,46.38,34.12,46.38Zm0-7.89c-1.67,0-3,.88-3,1.71s1.28,1.71,3,1.71,3-.88,3-1.71S35.84,38.48,34.12,38.48Z" transform="translate(-5.31 -15.83)"/></g><g id="_Grupo_5" data-name="&lt;Grupo&gt;"><path id="_Trazado_compuesto_3" data-name="&lt;Trazado compuesto&gt;" class="cls-1" d="M70.37,40.28c-6.3,0-11.2-3.87-11.2-8.81s4.94-8.81,11.2-8.81,11.2,3.87,11.2,8.81S76.63,40.28,70.37,40.28Zm0-13.08c-3.63,0-6.7,2-6.7,4.27s3.07,4.27,6.7,4.27,6.7-2,6.7-4.27S74,27.2,70.37,27.2Z" transform="translate(-5.31 -15.83)"/></g><g id="_Grupo_6" data-name="&lt;Grupo&gt;"><path id="_Trazado_compuesto_4" data-name="&lt;Trazado compuesto&gt;" class="cls-1" d="M61.84,63.72a7.42,7.42,0,1,1,7.42-7.42A7.43,7.43,0,0,1,61.84,63.72Zm0-10.29a2.91,2.91,0,1,0,2.91,2.91A2.93,2.93,0,0,0,61.84,53.43Z" transform="translate(-5.31 -15.83)"/></g></g></svg>