<svg id="Capa_1" data-name="Capa 1" xmlns="http://www.w3.org/2000/svg" viewBox="0 0 96.81 113.33"><defs><style>.cls-1{fill:#fcfcfc;}</style></defs><title>torta</title><g id="_Grupo_" data-name="&lt;Grupo&gt;"><g id="_Grupo_2" data-name="&lt;Grupo&gt;"><g id="_Grupo_3" data-name="&lt;Grupo&gt;"><path id="_Trazado_" data-name="&lt;Trazado&gt;" class="cls-1" d="M97,79.27H13.13a2.43,2.43,0,0,1-2.43-2.43V49h4.86V74.46h79V49h4.86V76.85A2.49,2.49,0,0,1,97,79.27Z" transform="translate(-6.66 -3.04)"/></g><g id="_Grupo_4" data-name="&lt;Grupo&gt;"><path id="_Trazado_compuesto_" data-name="&lt;Trazado compuesto&gt;" class="cls-1" d="M85.71,60.23c-5,0-7.54-3.28-9.58-6s-3.24-4-5.75-4-3.75,1.45-5.75,4-4.56,6-9.58,6-7.54-3.28-9.58-6-3.24-4-5.75-4S36,51.67,34,54.27s-4.56,6-9.58,6-7.54-3.28-9.58-6a12.44,12.44,0,0,0-3.45-3.54,8.61,8.61,0,0,1-4.68-7.58v-6.6A8.52,8.52,0,0,1,15.18,28H94.82a8.52,8.52,0,0,1,8.52,8.52v6.6a8.61,8.61,0,0,1-4.68,7.58,12.55,12.55,0,0,0-3.49,3.54C93.24,56.91,90.73,60.23,85.71,60.23ZM70.37,45.37c5,0,7.54,3.28,9.58,6s3.24,4,5.75,4,3.75-1.45,5.75-4a16.31,16.31,0,0,1,5.07-4.86,3.78,3.78,0,0,0,2.13-3.32v-6.6a3.71,3.71,0,0,0-3.71-3.71H15.22a3.71,3.71,0,0,0-3.71,3.71v6.6a3.83,3.83,0,0,0,2.13,3.32,15.7,15.7,0,0,1,5,4.86c2,2.6,3.24,4,5.75,4s3.75-1.45,5.75-4,4.56-6,9.58-6,7.54,3.28,9.58,6,3.24,4,5.75,4,3.75-1.45,5.75-4S65.35,45.37,70.37,45.37Z" transform="translate(-6.66 -3.04)"/></g><g id="_Grupo_5" data-name="&lt;Grupo&gt;"><g id="_Grupo_6" data-name="&lt;Grupo&gt;"><path id="_Trazado_compuesto_2" data-name="&lt;Trazado compuesto&gt;" class="cls-1" d="M59.3,32.85H50.87a2.43,2.43,0,0,1-2.43-2.43V11a2.43,2.43,0,0,1,2.43-2.43H59.3A2.43,2.43,0,0,1,61.73,11V30.42A2.45,2.45,0,0,1,59.3,32.85Zm-6-4.86h3.62V13.43H53.25Z" transform="translate(-6.66 -3.04)"/></g><g id="_Grupo_7" data-name="&lt;Grupo&gt;"><path id="_Trazado_2" data-name="&lt;Trazado&gt;" class="cls-1" d="M52.66,11.3c0-.21-.6-5.2,2.9-8.26l3.19,3.62c-1.58,1.36-1.32,4-1.32,4Z" transform="translate(-6.66 -3.04)"/></g></g></g><g id="_Grupo_8" data-name="&lt;Grupo&gt;"><path id="_Trazado_compuesto_3" data-name="&lt;Trazado compuesto&gt;" class="cls-1" d="M101,116.37H9.13a2.43,2.43,0,0,1-2.43-2.43V76.8a2.43,2.43,0,0,1,2.43-2.43H101a2.43,2.43,0,0,1,2.43,2.43v37.14A2.45,2.45,0,0,1,101,116.37Zm-89.48-4.81H98.61V79.27H11.56Z" transform="translate(-6.66 -3.04)"/></g></g></svg>