<svg id="Capa_1" data-name="Capa 1" xmlns="http://www.w3.org/2000/svg" viewBox="0 0 85.83 72.63"><defs><style>.cls-1{fill:#fcfcfc;}</style></defs><title>pan</title><g id="_Grupo_" data-name="&lt;Grupo&gt;"><g id="_Grupo_2" data-name="&lt;Grupo&gt;"><path id="_Trazado_compuesto_" data-name="&lt;Trazado compuesto&gt;" class="cls-1" d="M90.55,58.1H22.25a8.77,8.77,0,0,1-8.75-8.75A21.68,21.68,0,0,1,35.15,27.7H77.61A21.68,21.68,0,0,1,99.26,49.35,8.69,8.69,0,0,1,90.55,58.1ZM35.19,31.93A17.45,17.45,0,0,0,17.76,49.35a4.54,4.54,0,0,0,4.52,4.52h68.3a4.54,4.54,0,0,0,4.52-4.52A17.45,17.45,0,0,0,77.68,31.93Z" transform="translate(-13.5 -27.7)"/></g><g id="_Grupo_3" data-name="&lt;Grupo&gt;"><path id="_Trazado_compuesto_2" data-name="&lt;Trazado compuesto&gt;" class="cls-1" d="M77.64,100.33H35.19A21.68,21.68,0,0,1,13.54,78.68a8.77,8.77,0,0,1,8.75-8.75h68.3a8.77,8.77,0,0,1,8.75,8.75A21.73,21.73,0,0,1,77.64,100.33ZM22.25,74.16a4.54,4.54,0,0,0-4.52,4.52A17.45,17.45,0,0,0,35.15,96.11H77.61A17.45,17.45,0,0,0,95,78.68a4.54,4.54,0,0,0-4.52-4.52Z" transform="translate(-13.5 -27.7)"/></g><g id="_Grupo_4" data-name="&lt;Grupo&gt;"><path id="_Trazado_compuesto_3" data-name="&lt;Trazado compuesto&gt;" class="cls-1" d="M86.69,74.16H26.11a10.12,10.12,0,1,1,0-20.24H86.69a10.12,10.12,0,1,1,0,20.24ZM26.11,58.1a5.93,5.93,0,0,0,0,11.86H86.69a5.93,5.93,0,0,0,0-11.86Z" transform="translate(-13.5 -27.7)"/></g></g></svg>