<svg id="Capa_1" data-name="Capa 1" xmlns="http://www.w3.org/2000/svg" viewBox="0 0 106.6 99.71"><defs><style>.cls-1{fill:#fcfcfc;}</style></defs><title>panesillo</title><g id="_Grupo_" data-name="&lt;Grupo&gt;"><g id="_Grupo_2" data-name="&lt;Grupo&gt;"><path id="_Trazado_" data-name="&lt;Trazado&gt;" class="cls-1" d="M87.78,111.4H22.84A13.85,13.85,0,0,1,9,97.57V82.76H14.6V97.52a8.31,8.31,0,0,0,8.29,8.29h65a8.31,8.31,0,0,0,8.29-8.29V84.43h5.59V97.52A14,14,0,0,1,87.78,111.4Z" transform="translate(-3 -11.69)"/></g><g id="_Grupo_3" data-name="&lt;Grupo&gt;"><path id="_Trazado_2" data-name="&lt;Trazado&gt;" class="cls-1" d="M44.37,88.45c-6.42,0-11.92-1.18-16-3.53-1.86-1-4.46-.54-7.45,0-4.12.83-9.17,1.81-13.88-1.37C1.26,79.67,3.08,75.45,4.11,72.9,4.94,71,5.28,70,4.55,68.59c-1.47-2.8-1.62-5.15-.44-7,1.77-2.7,5.35-2.65,6-2.6L9.8,64.51a4.86,4.86,0,0,0-.88.1,5.16,5.16,0,0,0,.54,1.32c2,3.78.69,7-.2,9.07-1,2.35-1.08,2.6.88,3.92,2.75,1.86,5.93,1.23,9.66.49s7.65-1.52,11.28.54c5.79,3.29,15.69,3.68,27.27,1.08,1-.25,2-.44,2.84-.64,9.42-2.11,10-2.26,15.69-.64l1.57.44c7.9,2.21,18.49,2.89,21.63.49,1.28-1,1.28-1,0-3.58a26.51,26.51,0,0,1-2.06-5.39,15.24,15.24,0,0,1,0-6.18,3.79,3.79,0,0,0,.1-.74,15.28,15.28,0,0,0-2.06-.39l.69-5.54c2.35.29,4.76.83,6.08,2.6s.93,3.53.69,5a10,10,0,0,0,0,4,24.15,24.15,0,0,0,1.62,4.27c1.32,2.8,3.19,6.62-1.67,10.4-5.93,4.56-20,2.31-26.53.49-.59-.15-1.13-.34-1.62-.44C70.91,84,70.91,84,62.37,85.9c-.88.2-1.81.39-2.84.64A64.08,64.08,0,0,1,44.37,88.45Z" transform="translate(-3 -11.69)"/></g><g id="_Grupo_4" data-name="&lt;Grupo&gt;"><path id="_Trazado_compuesto_" data-name="&lt;Trazado compuesto&gt;" class="cls-1" d="M40.11,68.93a15.16,15.16,0,0,1-9.27-3c-4.51-3.29-6.52-2.7-9.56-1.77a15.94,15.94,0,0,1-10.35.29C7,63.19,5.33,60.79,4.65,59c-1.77-4.71,1-10,1.62-11.13,1.42-3.29,3.87-3.48,5.49-3.63A7.39,7.39,0,0,0,16,42.69c6-4.27,16.33-4.36,26.88-.34,5.64,2.16,8.88,1.72,14.71,1a116.17,116.17,0,0,1,14.76-1.18c8.93-.15,13.14,1.57,16,2.7,2.65,1.08,3.53,1.42,7-.1,4.46-1.91,8.63-1.32,11.43,1.77,3.38,3.68,3.78,10.05,1,15.15-3.09,5.69-8.68,3.78-12.36,2.5s-6-1.91-7.85-.34c-5.44,4.61-8.63,3.78-13.44,2.5A63.15,63.15,0,0,0,65,64.47c-4.81-.59-9.42.78-13.93,2.16A34.37,34.37,0,0,1,40.11,68.93ZM24.9,57.84c2.5,0,5.44.83,9.22,3.58,4.27,3.14,8.63,2,15.35,0C54.28,59.9,59.72,58.29,65.71,59a62.52,62.52,0,0,1,9.86,2c4.41,1.18,5.2,1.37,8.44-1.37,4.41-3.73,9.51-2,13.24-.69,4.56,1.57,5,1.28,5.64.1,1.81-3.33,1.32-7.06-.25-8.73-1.13-1.23-2.84-1.37-5.1-.39-5.54,2.4-8.19,1.37-11.23.15-2.7-1.08-6-2.4-13.83-2.26A118.81,118.81,0,0,0,58.35,49c-6.08.78-10.5,1.32-17.41-1.32-8.73-3.33-17.26-3.48-21.68-.34a12.79,12.79,0,0,1-7,2.5,3.81,3.81,0,0,0-.78.1.76.76,0,0,0-.15.34.79.79,0,0,1-.2.34c-.59,1-2.11,4.36-1.32,6.47.15.34.54,1.42,2.7,2.06,2.94.93,4.86.34,7.11-.34A19.21,19.21,0,0,1,24.9,57.84Z" transform="translate(-3 -11.69)"/></g><g id="_Grupo_5" data-name="&lt;Grupo&gt;"><path id="_Trazado_3" data-name="&lt;Trazado&gt;" class="cls-1" d="M14.55,47.06H9V29.5A16.42,16.42,0,0,1,22.84,13.17c18.69-2.94,41.83-.93,64,1.32a16.49,16.49,0,0,1,14.81,16.43V46.47H96V30.92A10.91,10.91,0,0,0,86.21,20c-21.73-2.26-44.48-4.22-62.53-1.37a10.83,10.83,0,0,0-9.17,10.79V47.06Z" transform="translate(-3 -11.69)"/></g></g></svg>