<svg id="Capa_1" data-name="Capa 1" xmlns="http://www.w3.org/2000/svg" viewBox="0 0 101 91.46"><defs><style>.cls-1{fill:#fcfcfc;}</style></defs><title>rollo</title><g id="_Grupo_" data-name="&lt;Grupo&gt;"><g id="_Grupo_2" data-name="&lt;Grupo&gt;"><path id="_Trazado_compuesto_" data-name="&lt;Trazado compuesto&gt;" class="cls-1" d="M52.23,109.6A45.73,45.73,0,1,1,98,63.87,45.8,45.8,0,0,1,52.23,109.6Zm0-87A41.29,41.29,0,1,0,93.52,63.87,41.33,41.33,0,0,0,52.23,22.58Z" transform="translate(-6.5 -18.14)"/></g><g id="_Grupo_3" data-name="&lt;Grupo&gt;"><path id="_Trazado_" data-name="&lt;Trazado&gt;" class="cls-1" d="M61.77,109.6H52.19v-4.44h9.58a41.29,41.29,0,0,0,0-82.58H52.19V18.14h9.58a45.73,45.73,0,1,1,0,91.46Z" transform="translate(-6.5 -18.14)"/></g><g id="_Grupo_4" data-name="&lt;Grupo&gt;"><path id="_Trazado_2" data-name="&lt;Trazado&gt;" class="cls-1" d="M57.76,97.49a38.45,38.45,0,0,1-7.28-.7A37.08,37.08,0,0,1,26.72,81,31.72,31.72,0,0,1,35.4,36.92,27.11,27.11,0,0,1,73,44.32a23.2,23.2,0,0,1-6.35,32.13A19.88,19.88,0,0,1,39.06,71a17.06,17.06,0,0,1,4.67-23.68,14.74,14.74,0,0,1,20.45,4.05,12.8,12.8,0,0,1-3.51,17.72,11,11,0,0,1-8.34,1.67,11.17,11.17,0,0,1-7.09-4.71A9.75,9.75,0,0,1,47.9,52.61a2.25,2.25,0,0,1,3.08.62,2.21,2.21,0,0,1-.62,3.08,5.27,5.27,0,0,0-1.48,7.32,6.7,6.7,0,0,0,4.25,2.84,6.56,6.56,0,0,0,5-1,8.21,8.21,0,0,0,3.54-5.3,8.32,8.32,0,0,0-1.25-6.27,10.37,10.37,0,0,0-14.33-2.84,12.65,12.65,0,0,0-3.47,17.57,15.47,15.47,0,0,0,21.46,4.21,18.79,18.79,0,0,0,5.14-26,22.65,22.65,0,0,0-31.43-6.19,27.28,27.28,0,0,0-7.48,37.9,32.83,32.83,0,0,0,45.57,9,2.22,2.22,0,0,1,2.45,3.7A37.06,37.06,0,0,1,57.76,97.49Z" transform="translate(-6.5 -18.14)"/></g></g></svg>