<svg id="Capa_1" data-name="Capa 1" xmlns="http://www.w3.org/2000/svg" viewBox="0 0 100.78 115.32"><defs><style>.cls-1{fill:#fcfcfc;}</style></defs><title>tasita</title><g id="_Grupo_" data-name="&lt;Grupo&gt;"><g id="_Grupo_2" data-name="&lt;Grupo&gt;"><path id="_Trazado_compuesto_" data-name="&lt;Trazado compuesto&gt;" class="cls-1" d="M91,119.33H19.48a2.69,2.69,0,0,1-2.62-2.09L4.93,65.17a2.68,2.68,0,0,1,2.62-3.28h95.4a2.69,2.69,0,0,1,2.09,1,2.65,2.65,0,0,1,.52,2.28L93.62,117.24A2.7,2.7,0,0,1,91,119.33ZM21.62,114h67.2l10.7-46.65H10.92Z" transform="translate(-4.86 -4.01)"/></g><g id="_Grupo_3" data-name="&lt;Grupo&gt;"><path id="_Trazado_" data-name="&lt;Trazado&gt;" class="cls-1" d="M6.59,64.78C6,56.22,11.25,51.94,15.49,50.28c.1-2.9,1.09-8.08,5.56-15.93,3.52-6.18,9.7-8.51,14.74-9.84l1.38,5.23c-4.23,1.14-8.94,2.85-11.41,7.28-5.37,9.46-4.85,14-4.8,14.51a2.44,2.44,0,0,1-.24,2.14,2.54,2.54,0,0,1-1.9,1.24A8.47,8.47,0,0,0,12,64.36Z" transform="translate(-4.86 -4.01)"/></g><g id="_Grupo_4" data-name="&lt;Grupo&gt;"><path id="_Trazado_2" data-name="&lt;Trazado&gt;" class="cls-1" d="M103.23,65.5l-5.09-1.85c.29-.81,2.47-7.94-6.94-11.41a2.75,2.75,0,0,1-1.57-1.52,2.9,2.9,0,0,1,0-2.19c.24-.52,5.85-12.46-2.24-17.41a2.78,2.78,0,0,1-1.28-1.95c0-.1-1.62-10.32-9.94-15.93C71.08,9.76,64.42,8.67,56.34,10a11.14,11.14,0,0,1-1.09,12.7L51,19.32c3.52-4.52-.38-8.42-1.19-9.18A2.68,2.68,0,0,1,51,5.53C62.47,2.72,72,3.82,79.36,8.81c8.51,5.8,11.22,15,12,18.4,7.42,5.37,6.47,15,4.33,21.12C104.8,53,104.71,61.41,103.23,65.5Z" transform="translate(-4.86 -4.01)"/></g><g id="_Grupo_5" data-name="&lt;Grupo&gt;"><path id="_Trazado_compuesto_2" data-name="&lt;Trazado compuesto&gt;" class="cls-1" d="M46.73,43.67A13.46,13.46,0,1,1,60.19,30.21,13.48,13.48,0,0,1,46.73,43.67Zm0-21.5a8,8,0,1,0,8,8A8.06,8.06,0,0,0,46.73,22.17Z" transform="translate(-4.86 -4.01)"/></g><g id="_Grupo_6" data-name="&lt;Grupo&gt;"><path id="_Trazado_3" data-name="&lt;Trazado&gt;" class="cls-1" d="M41.45,21.89c-5.71-5.75-3.66-15.31-3.57-15.74l5.28,1.14S41.69,14.42,45.31,18Z" transform="translate(-4.86 -4.01)"/></g></g></svg>